<svg width="16" height="16" viewBox="0 0 16 16" fill="none" xmlns="http://www.w3.org/2000/svg">
<path d="M6.83768 13.9844C6.95458 14.1868 7.1227 14.3549 7.32516 14.4718C7.52762 14.5887 7.75728 14.6502 7.99106 14.6502C8.22484 14.6502 8.4545 14.5887 8.65696 14.4718C8.85942 14.3549 9.02754 14.1868 9.14444 13.9844" stroke="#4A5565" stroke-width="1.33185" stroke-linecap="round" stroke-linejoin="round"/>
<path d="M2.17225 10.2062C2.08525 10.3015 2.02784 10.4201 2.007 10.5475C1.98616 10.6748 2.00278 10.8055 2.05485 10.9236C2.10691 11.0417 2.19218 11.1421 2.30027 11.2127C2.40837 11.2832 2.53463 11.3208 2.6637 11.3209H13.3185C13.4476 11.321 13.5738 11.2835 13.682 11.2131C13.7902 11.1427 13.8755 11.0424 13.9278 10.9244C13.98 10.8063 13.9967 10.6757 13.9761 10.5483C13.9554 10.4209 13.8981 10.3023 13.8113 10.2068C12.9256 9.29383 11.9867 8.32358 11.9867 5.32758C11.9867 4.2679 11.5657 3.25161 10.8164 2.5023C10.0671 1.75299 9.05079 1.33203 7.9911 1.33203C6.93142 1.33203 5.91513 1.75299 5.16582 2.5023C4.41651 3.25161 3.99555 4.2679 3.99555 5.32758C3.99555 8.32358 3.05593 9.29384 2.17225 10.2062Z" stroke="#4A5565" stroke-width="1.33185" stroke-linecap="round" stroke-linejoin="round"/>
</svg>
