<svg width="20" height="20" viewBox="0 0 20 20" fill="none" xmlns="http://www.w3.org/2000/svg">
<path d="M10 10.8337C10.4602 10.8337 10.8333 10.4606 10.8333 10.0003C10.8333 9.54009 10.4602 9.16699 10 9.16699C9.53977 9.16699 9.16668 9.54009 9.16668 10.0003C9.16668 10.4606 9.53977 10.8337 10 10.8337Z" stroke="#6D6D6D" stroke-linecap="round" stroke-linejoin="round"/>
<path d="M15.8333 10.8337C16.2936 10.8337 16.6667 10.4606 16.6667 10.0003C16.6667 9.54009 16.2936 9.16699 15.8333 9.16699C15.3731 9.16699 15 9.54009 15 10.0003C15 10.4606 15.3731 10.8337 15.8333 10.8337Z" stroke="#6D6D6D" stroke-linecap="round" stroke-linejoin="round"/>
<path d="M4.16668 10.8337C4.62691 10.8337 5.00001 10.4606 5.00001 10.0003C5.00001 9.54009 4.62691 9.16699 4.16668 9.16699C3.70644 9.16699 3.33334 9.54009 3.33334 10.0003C3.33334 10.4606 3.70644 10.8337 4.16668 10.8337Z" stroke="#6D6D6D" stroke-linecap="round" stroke-linejoin="round"/>
</svg>
