<svg width="20" height="20" viewBox="0 0 20 20" fill="none" xmlns="http://www.w3.org/2000/svg">
<g clip-path="url(#clip0_102_1167)">
<path d="M12.4976 1.66602H4.99904C4.5571 1.66602 4.13326 1.84158 3.82076 2.15408C3.50826 2.46657 3.3327 2.89042 3.3327 3.33236V16.6631C3.3327 17.105 3.50826 17.5289 3.82076 17.8414C4.13326 18.1539 4.5571 18.3294 4.99904 18.3294H14.9971C15.439 18.3294 15.8629 18.1539 16.1754 17.8414C16.4879 17.5289 16.6634 17.105 16.6634 16.6631V5.83187L12.4976 1.66602Z" stroke="#7F56D9" stroke-width="1.66634" stroke-linecap="round" stroke-linejoin="round"/>
<path d="M11.6644 1.66602V4.9987C11.6644 5.44064 11.8399 5.86448 12.1524 6.17698C12.4649 6.48948 12.8888 6.66504 13.3307 6.66504H16.6634" stroke="#7F56D9" stroke-width="1.66634" stroke-linecap="round" stroke-linejoin="round"/>
<path d="M8.33169 7.49805H6.66534" stroke="#7F56D9" stroke-width="1.66634" stroke-linecap="round" stroke-linejoin="round"/>
<path d="M13.3307 10.8311H6.66534" stroke="#7F56D9" stroke-width="1.66634" stroke-linecap="round" stroke-linejoin="round"/>
<path d="M13.3307 14.1641H6.66534" stroke="#7F56D9" stroke-width="1.66634" stroke-linecap="round" stroke-linejoin="round"/>
</g>
<defs>
<clipPath id="clip0_102_1167">
<rect width="19.9961" height="19.9961" fill="white"/>
</clipPath>
</defs>
</svg>
