<svg width="20" height="20" viewBox="0 0 20 20" fill="none" xmlns="http://www.w3.org/2000/svg">
<g clip-path="url(#clip0_102_1186)">
<path d="M18.3297 9.99772H16.2635C15.8993 9.99694 15.545 10.1155 15.2546 10.3351C14.9642 10.5548 14.7538 10.8635 14.6554 11.2141L12.6975 18.1795C12.6849 18.2227 12.6586 18.2607 12.6225 18.2878C12.5865 18.3148 12.5426 18.3294 12.4975 18.3294C12.4525 18.3294 12.4086 18.3148 12.3726 18.2878C12.3365 18.2607 12.3102 18.2227 12.2976 18.1795L7.69847 1.81599C7.68586 1.77272 7.65954 1.73472 7.62349 1.70767C7.58743 1.68063 7.54358 1.66602 7.49851 1.66602C7.45345 1.66602 7.40959 1.68063 7.37354 1.70767C7.33748 1.73472 7.31117 1.77272 7.29855 1.81599L5.3406 8.78129C5.24268 9.13052 5.03348 9.43826 4.74477 9.6578C4.45606 9.87734 4.10361 9.99668 3.74091 9.99772H1.66632" stroke="#7F56D9" stroke-width="1.66634" stroke-linecap="round" stroke-linejoin="round"/>
</g>
<defs>
<clipPath id="clip0_102_1186">
<rect width="19.9961" height="19.9961" fill="white"/>
</clipPath>
</defs>
</svg>
