<svg width="16" height="16" viewBox="0 0 16 16" fill="none" xmlns="http://www.w3.org/2000/svg">
<path d="M7.9911 1.99805H3.32962C2.97639 1.99805 2.63763 2.13837 2.38786 2.38814C2.13809 2.63791 1.99777 2.97667 1.99777 3.3299V12.6529C1.99777 13.0061 2.13809 13.3448 2.38786 13.5946C2.63763 13.8444 2.97639 13.9847 3.32962 13.9847H12.6526C13.0058 13.9847 13.3446 13.8444 13.5943 13.5946C13.8441 13.3448 13.9844 13.0061 13.9844 12.6529V7.99138" stroke="#0A0A0A" stroke-width="1.33185" stroke-linecap="round" stroke-linejoin="round"/>
<path d="M12.2363 1.74774C12.5013 1.48282 12.8606 1.33398 13.2352 1.33398C13.6099 1.33398 13.9692 1.48282 14.2341 1.74774C14.499 2.01266 14.6479 2.37197 14.6479 2.74663C14.6479 3.12128 14.499 3.48059 14.2341 3.74551L8.23214 9.74817C8.07401 9.90615 7.87867 10.0218 7.6641 10.0845L5.7509 10.6438C5.6936 10.6605 5.63286 10.6615 5.57503 10.6467C5.51721 10.6319 5.46444 10.6018 5.42223 10.5596C5.38002 10.5174 5.34994 10.4646 5.33512 10.4068C5.32031 10.349 5.32131 10.2883 5.33803 10.231L5.8974 8.31776C5.96035 8.10336 6.07623 7.90825 6.23436 7.75039L12.2363 1.74774Z" stroke="#0A0A0A" stroke-width="1.33185" stroke-linecap="round" stroke-linejoin="round"/>
</svg>
