<svg width="20" height="20" viewBox="0 0 20 20" fill="none" xmlns="http://www.w3.org/2000/svg">
<g clip-path="url(#clip0_102_1149)">
<path d="M13.3308 17.4961V15.8298C13.3308 14.9459 12.9796 14.0982 12.3546 13.4732C11.7296 12.8482 10.882 12.4971 9.99809 12.4971H4.99906C4.11518 12.4971 3.2675 12.8482 2.6425 13.4732C2.0175 14.0982 1.66638 14.9459 1.66638 15.8298V17.4961" stroke="#7F56D9" stroke-width="1.66634" stroke-linecap="round" stroke-linejoin="round"/>
<path d="M13.3308 2.60645C14.0455 2.79172 14.6784 3.20905 15.1302 3.79293C15.582 4.37682 15.8272 5.0942 15.8272 5.83248C15.8272 6.57076 15.582 7.28815 15.1302 7.87203C14.6784 8.45591 14.0455 8.87324 13.3308 9.05852" stroke="#7F56D9" stroke-width="1.66634" stroke-linecap="round" stroke-linejoin="round"/>
<path d="M18.3298 17.4962V15.8298C18.3293 15.0914 18.0835 14.3741 17.6311 13.7905C17.1787 13.2069 16.5453 12.7901 15.8303 12.6055" stroke="#7F56D9" stroke-width="1.66634" stroke-linecap="round" stroke-linejoin="round"/>
<path d="M7.49858 9.16439C9.33916 9.16439 10.8313 7.67229 10.8313 5.83171C10.8313 3.99112 9.33916 2.49902 7.49858 2.49902C5.65799 2.49902 4.16589 3.99112 4.16589 5.83171C4.16589 7.67229 5.65799 9.16439 7.49858 9.16439Z" stroke="#7F56D9" stroke-width="1.66634" stroke-linecap="round" stroke-linejoin="round"/>
</g>
<defs>
<clipPath id="clip0_102_1149">
<rect width="19.9961" height="19.9961" fill="white"/>
</clipPath>
</defs>
</svg>
