<svg width="20" height="20" viewBox="0 0 20 20" fill="none" xmlns="http://www.w3.org/2000/svg">
<path d="M16.6667 2.50053V5.83386M18.3334 4.1672H15.0001M3.33341 14.1672V15.8339M4.16675 15.0005H2.50008M8.28086 12.9172C8.20647 12.6288 8.05615 12.3656 7.84555 12.155C7.63494 11.9444 7.37176 11.7941 7.08336 11.7197L1.97086 10.4014C1.88364 10.3766 1.80687 10.3241 1.75221 10.2517C1.69754 10.1794 1.66797 10.0912 1.66797 10.0005C1.66797 9.90986 1.69754 9.82167 1.75221 9.74933C1.80687 9.67699 1.88364 9.62446 1.97086 9.5997L7.08336 8.28053C7.37166 8.2062 7.63477 8.05601 7.84537 7.84556C8.05596 7.63512 8.20634 7.37211 8.28086 7.08387L9.5992 1.97137C9.6237 1.8838 9.67618 1.80665 9.74863 1.7517C9.82108 1.69674 9.90951 1.66699 10.0004 1.66699C10.0914 1.66699 10.1798 1.69674 10.2523 1.7517C10.3247 1.80665 10.3772 1.8838 10.4017 1.97137L11.7192 7.08387C11.7936 7.37226 11.9439 7.63545 12.1545 7.84605C12.3651 8.05665 12.6283 8.20697 12.9167 8.28137L18.0292 9.59887C18.1171 9.62312 18.1946 9.67554 18.2499 9.7481C18.3052 9.82065 18.3351 9.90933 18.3351 10.0005C18.3351 10.0917 18.3052 10.1804 18.2499 10.253C18.1946 10.3255 18.1171 10.3779 18.0292 10.4022L12.9167 11.7197C12.6283 11.7941 12.3651 11.9444 12.1545 12.155C11.9439 12.3656 11.7936 12.6288 11.7192 12.9172L10.4009 18.0297C10.3764 18.1173 10.3239 18.1944 10.2514 18.2494C10.179 18.3043 10.0905 18.3341 9.99961 18.3341C9.90868 18.3341 9.82025 18.3043 9.7478 18.2494C9.67535 18.1944 9.62287 18.1173 9.59836 18.0297L8.28086 12.9172Z" stroke="#7F56D9" stroke-width="1.2" stroke-linecap="round" stroke-linejoin="round"/>
</svg>
