<svg width="20" height="20" viewBox="0 0 20 20" fill="none" xmlns="http://www.w3.org/2000/svg">
<path d="M9.99987 4.16667C10.0009 3.83336 9.93517 3.50322 9.8067 3.19567C9.67822 2.88811 9.48954 2.60936 9.25176 2.37579C9.01398 2.14222 8.73189 1.95856 8.42208 1.83561C8.11228 1.71266 7.78102 1.6529 7.44778 1.65984C7.11454 1.66679 6.78606 1.7403 6.48165 1.87606C6.17724 2.01181 5.90305 2.20707 5.6752 2.45034C5.44736 2.69361 5.27046 2.97999 5.15491 3.29263C5.03936 3.60527 4.9875 3.93786 5.00237 4.27083M9.99987 4.16667V15M9.99987 4.16667C9.99889 3.83336 10.0647 3.50322 10.1932 3.19567C10.3217 2.88811 10.5103 2.60936 10.7481 2.37579C10.9859 2.14222 11.268 1.95856 11.5778 1.83561C11.8876 1.71266 12.2189 1.6529 12.5521 1.65984C12.8853 1.66679 13.2138 1.7403 13.5182 1.87606C13.8227 2.01181 14.0968 2.20707 14.3247 2.45034C14.5525 2.69361 14.7294 2.97999 14.845 3.29263C14.9605 3.60527 15.0124 3.93786 14.9975 4.27083C15.4874 4.39678 15.9421 4.63254 16.3273 4.96026C16.7126 5.28798 17.0182 5.69906 17.221 6.16237C17.4238 6.62569 17.5186 7.12908 17.498 7.63443C17.4775 8.13978 17.3423 8.63383 17.1025 9.07917M5.00237 4.27083C4.51254 4.39678 4.05779 4.63254 3.67256 4.96026C3.28734 5.28798 2.98173 5.69906 2.7789 6.16237C2.57608 6.62569 2.48133 7.12908 2.50186 7.63443C2.52238 8.13978 2.65763 8.63383 2.89737 9.07917M5.00237 4.27083C5.01885 4.67395 5.13273 5.06704 5.33412 5.41663M2.89737 9.07917C2.47585 9.42161 2.14439 9.86186 1.93182 10.3616C1.71925 10.8614 1.632 11.4055 1.67767 11.9467C1.72334 12.4878 1.90055 13.0096 2.19387 13.4667C2.4872 13.9237 2.88776 14.3022 3.3607 14.5692M2.89737 9.07917C3.04982 8.95501 3.21314 8.84537 3.38505 8.74996M3.3607 14.5692C3.3023 15.021 3.33715 15.4801 3.46311 15.9179C3.58906 16.3558 3.80345 16.7632 4.09302 17.115C4.3826 17.4667 4.74121 17.7554 5.14672 17.9631C5.55223 18.1709 5.99602 18.2933 6.45068 18.3228C6.90535 18.3523 7.36124 18.2883 7.79019 18.1347C8.21915 17.9811 8.61206 17.7412 8.94467 17.4298C9.27728 17.1184 9.54251 16.7421 9.724 16.3242C9.90549 15.9063 9.99938 15.4556 9.99987 15M3.3607 14.5692C3.86092 14.8513 4.42587 15.0001 5.00018 14.9999M9.99987 15C10.0004 15.4556 10.0944 15.9063 10.2759 16.3242C10.4574 16.7421 10.7226 17.1184 11.0552 17.4298C11.3878 17.7412 11.7807 17.9811 12.2097 18.1347C12.6387 18.2883 13.0945 18.3523 13.5492 18.3228C14.0039 18.2933 14.4477 18.1709 14.8532 17.9631C15.2587 17.7554 15.6173 17.4667 15.9069 17.115C16.1964 16.7632 16.4108 16.3558 16.5368 15.9179C16.6627 15.4801 16.6976 15.021 16.6392 14.5692M17.1025 9.07917C17.524 9.42161 17.8555 9.86186 18.0681 10.3616C18.2806 10.8614 18.3679 11.4055 18.3222 11.9467C18.2765 12.4878 18.0993 13.0096 17.806 13.4667C17.5127 13.9237 17.1121 14.3022 16.6392 14.5692M17.1025 9.07917C16.9501 8.95501 16.7869 8.84537 16.615 8.74996M16.6392 14.5692C16.139 14.8513 15.5743 15.0001 15 14.9999M12.5 10.8333C11.8004 10.5872 11.1894 10.1391 10.7444 9.5458C10.2995 8.95247 10.0404 8.24052 10 7.49996C9.95963 8.24052 9.70057 8.95247 9.25557 9.5458C8.81058 10.1391 8.19964 10.5872 7.50001 10.8333M14.6659 5.41663C14.8676 5.06711 14.9817 4.67397 14.9984 4.27079" stroke="#6D6D6D" stroke-linecap="round" stroke-linejoin="round"/>
</svg>
