<svg width="16" height="16" viewBox="0 0 16 16" fill="none" xmlns="http://www.w3.org/2000/svg">
<path d="M13.0306 7.53062C12.9609 7.60054 12.8781 7.65602 12.787 7.69387C12.6958 7.73173 12.5981 7.75121 12.4993 7.75121C12.4006 7.75121 12.3029 7.73173 12.2117 7.69387C12.1206 7.65602 12.0378 7.60054 11.9681 7.53062L8.74997 4.31249V13.5C8.74997 13.6989 8.67095 13.8897 8.5303 14.0303C8.38965 14.171 8.19889 14.25 7.99997 14.25C7.80106 14.25 7.61029 14.171 7.46964 14.0303C7.32899 13.8897 7.24997 13.6989 7.24997 13.5V4.31249L4.0306 7.53062C3.8897 7.67152 3.69861 7.75067 3.49935 7.75067C3.30009 7.75067 3.10899 7.67152 2.9681 7.53062C2.8272 7.38972 2.74805 7.19863 2.74805 6.99937C2.74805 6.80011 2.8272 6.60902 2.9681 6.46812L7.4681 1.96812C7.53778 1.8982 7.62057 1.84272 7.71173 1.80487C7.8029 1.76701 7.90064 1.74753 7.99935 1.74753C8.09806 1.74753 8.1958 1.76701 8.28696 1.80487C8.37813 1.84272 8.46092 1.8982 8.5306 1.96812L13.0306 6.46812C13.1005 6.5378 13.156 6.62059 13.1938 6.71176C13.2317 6.80292 13.2512 6.90066 13.2512 6.99937C13.2512 7.09808 13.2317 7.19582 13.1938 7.28698C13.156 7.37815 13.1005 7.46094 13.0306 7.53062Z" fill="white"/>
</svg>
