<svg width="16" height="16" viewBox="0 0 16 16" fill="none" xmlns="http://www.w3.org/2000/svg">
<path d="M11.3333 9.33331V1.33331M5.99987 12.08L6.66653 9.33331H2.77987C2.57287 9.33331 2.36872 9.28512 2.18358 9.19255C1.99844 9.09998 1.8374 8.96557 1.7132 8.79998C1.589 8.63438 1.50507 8.44215 1.46804 8.23849C1.43101 8.03484 1.44191 7.82536 1.49987 7.62665L3.0532 2.29331C3.13398 2.01636 3.30241 1.77308 3.5332 1.59998C3.764 1.42688 4.04471 1.33331 4.3332 1.33331H13.3332C13.6868 1.33331 14.026 1.47379 14.276 1.72384C14.5261 1.97389 14.6665 2.31302 14.6665 2.66665V7.99998C14.6665 8.3536 14.5261 8.69274 14.276 8.94279C14.026 9.19284 13.6868 9.33331 13.3332 9.33331H11.4932C11.2451 9.33344 11.002 9.40277 10.7912 9.5335C10.5804 9.66423 10.4103 9.85117 10.2999 10.0733L7.99987 14.6666C7.68548 14.6628 7.37604 14.5879 7.09466 14.4476C6.81329 14.3073 6.56725 14.1052 6.37493 13.8565C6.18261 13.6078 6.04899 13.3188 5.98404 13.0112C5.9191 12.7036 5.9245 12.3852 5.99987 12.08Z" stroke="#3D3D3A" stroke-linecap="round" stroke-linejoin="round"/>
</svg>
