<svg width="20" height="20" viewBox="0 0 20 20" fill="none" xmlns="http://www.w3.org/2000/svg">
<path d="M3.33332 18.3333H15C15.442 18.3333 15.8659 18.1577 16.1785 17.8451C16.4911 17.5326 16.6667 17.1087 16.6667 16.6666V5.83329L12.5 1.66663H4.99999C4.55796 1.66663 4.13404 1.84222 3.82148 2.15478C3.50892 2.46734 3.33332 2.89127 3.33332 3.33329V6.66663M11.6667 1.66663V4.99996C11.6667 5.44199 11.8423 5.86591 12.1548 6.17847C12.4674 6.49103 12.8913 6.66663 13.3333 6.66663H16.6667M1.66666 10.8333V9.99996H6.66666V10.8333M4.16666 9.99996V15M3.33332 15H4.99999" stroke="#6D6D6D" stroke-linecap="round" stroke-linejoin="round"/>
</svg>
