<svg width="16" height="16" viewBox="0 0 16 16" fill="none" xmlns="http://www.w3.org/2000/svg">
<path d="M4.66659 6.66665V14.6666M9.99992 3.91998L9.33325 6.66665H13.2199C13.4269 6.66665 13.6311 6.71484 13.8162 6.80741C14.0013 6.89998 14.1624 7.03439 14.2866 7.19998C14.4108 7.36557 14.4947 7.55781 14.5317 7.76147C14.5688 7.96512 14.5579 8.1746 14.4999 8.37331L12.9466 13.7066C12.8658 13.9836 12.6974 14.2269 12.4666 14.4C12.2358 14.5731 11.9551 14.6666 11.6666 14.6666H2.66659C2.31296 14.6666 1.97382 14.5262 1.72378 14.2761C1.47373 14.0261 1.33325 13.6869 1.33325 13.3333V7.99998C1.33325 7.64636 1.47373 7.30722 1.72378 7.05717C1.97382 6.80712 2.31296 6.66665 2.66659 6.66665H4.50659C4.75464 6.66651 4.99774 6.59719 5.20856 6.46646C5.41937 6.33573 5.58953 6.14879 5.69992 5.92665L7.99992 1.33331C8.3143 1.33721 8.62374 1.41209 8.90512 1.55238C9.1865 1.69266 9.43254 1.89472 9.62486 2.14345C9.81717 2.39218 9.9508 2.68115 10.0157 2.98878C10.0807 3.29641 10.0753 3.61474 9.99992 3.91998Z" stroke="#3D3D3A" stroke-linecap="round" stroke-linejoin="round"/>
</svg>
