<svg width="20" height="20" viewBox="0 0 20 20" fill="none" xmlns="http://www.w3.org/2000/svg">
<path d="M15 7.5H16.6667C17.1087 7.5 17.5326 7.67559 17.8452 7.98815C18.1577 8.30071 18.3333 8.72464 18.3333 9.16666V18.3333L15 15H10C9.55797 15 9.13405 14.8244 8.82149 14.5118C8.50893 14.1993 8.33333 13.7754 8.33333 13.3333V12.5M11.6667 7.5C11.6667 7.94202 11.4911 8.36595 11.1785 8.67851C10.8659 8.99107 10.442 9.16666 10 9.16666H5L1.66667 12.5V3.33333C1.66667 2.41666 2.41667 1.66666 3.33333 1.66666H10C10.442 1.66666 10.8659 1.84226 11.1785 2.15482C11.4911 2.46738 11.6667 2.8913 11.6667 3.33333V7.5Z" stroke="#3D3D3A" stroke-linecap="round" stroke-linejoin="round"/>
</svg>
