<svg width="24" height="24" viewBox="0 0 24 24" fill="none" xmlns="http://www.w3.org/2000/svg">
<path d="M14.5488 1.8C16.6605 1.80006 18.254 2.27054 19.3291 3.21113C20.4043 4.13273 20.9424 5.39097 20.9424 6.98457C20.9424 7.46432 20.9039 7.90576 20.8271 8.30879C20.6352 9.47983 20.1839 10.5553 19.4736 11.5344C18.7632 12.4944 17.7932 13.2722 16.5645 13.8674C15.3549 14.4626 13.9246 14.7599 12.2734 14.76H9.2207L7.9248 22.0178H3L6.57129 1.8H14.5488ZM13.9922 3.85176C13.9451 3.86508 13.9036 3.89288 13.874 3.93184L12.2041 6.24336C12.1099 6.37359 11.9823 6.47589 11.835 6.54023C11.6877 6.60453 11.5257 6.62895 11.3662 6.60957L8.53613 6.26582C8.48743 6.26112 8.43818 6.27245 8.39648 6.29805C8.35482 6.32366 8.32252 6.36285 8.30469 6.4084C8.28699 6.45387 8.28465 6.50399 8.29785 6.55098C8.31107 6.59796 8.33912 6.63955 8.37793 6.66914L10.6895 8.33906C10.8197 8.4332 10.9229 8.56002 10.9873 8.70723C11.0517 8.85458 11.075 9.0173 11.0557 9.17695L10.7119 12.0061C10.707 12.0549 10.7176 12.1048 10.7432 12.1467C10.7688 12.1886 10.8078 12.2206 10.8535 12.2385C10.8992 12.2564 10.9498 12.2587 10.9971 12.2453C11.0442 12.2319 11.0857 12.2034 11.1152 12.1643L12.7842 9.85371C12.8783 9.72341 13.0061 9.6203 13.1533 9.55586C13.3005 9.49149 13.4625 9.46822 13.6221 9.4875L16.4521 9.83125C16.501 9.83635 16.5508 9.82548 16.5928 9.8C16.6348 9.77442 16.6676 9.73544 16.6855 9.68965C16.7035 9.6439 16.7058 9.59335 16.6924 9.54609C16.6789 9.49873 16.6498 9.45646 16.6104 9.42695L14.2998 7.75801C14.1694 7.66382 14.0664 7.53622 14.002 7.38887C13.9376 7.24161 13.9142 7.07964 13.9336 6.92012L14.2773 4.09004C14.2822 4.04128 14.2707 3.9922 14.2451 3.95039C14.2196 3.90869 14.1812 3.87651 14.1357 3.85859C14.09 3.84069 14.0394 3.83839 13.9922 3.85176Z" fill="#7F56D9"/>
</svg>
