<svg width="14" height="14" viewBox="0 0 14 14" fill="none" xmlns="http://www.w3.org/2000/svg">
<path d="M11.6666 1.75001V4.08334M12.8333 2.91668H10.5M2.33329 9.91668V11.0833M2.91663 10.5H1.74996M5.79651 9.04168C5.74443 8.8398 5.6392 8.65557 5.49178 8.50815C5.34436 8.36073 5.16013 8.25551 4.95826 8.20343L1.37951 7.2806C1.31845 7.26327 1.26471 7.22649 1.22645 7.17586C1.18818 7.12522 1.16748 7.06348 1.16748 7.00001C1.16748 6.93654 1.18818 6.87481 1.22645 6.82417C1.26471 6.77353 1.31845 6.73676 1.37951 6.71943L4.95826 5.79601C5.16006 5.74398 5.34424 5.63885 5.49166 5.49154C5.63907 5.34422 5.74434 5.16011 5.79651 4.95835L6.71934 1.3796C6.7365 1.3183 6.77323 1.2643 6.82394 1.22583C6.87466 1.18736 6.93656 1.16653 7.00022 1.16653C7.06387 1.16653 7.12577 1.18736 7.17649 1.22583C7.2272 1.2643 7.26394 1.3183 7.28109 1.3796L8.20334 4.95835C8.25542 5.16022 8.36064 5.34445 8.50806 5.49187C8.65548 5.63929 8.83972 5.74452 9.04159 5.7966L12.6203 6.71885C12.6819 6.73582 12.7362 6.77252 12.7748 6.82331C12.8135 6.8741 12.8345 6.93617 12.8345 7.00001C12.8345 7.06385 12.8135 7.12593 12.7748 7.17672C12.7362 7.22751 12.6819 7.2642 12.6203 7.28118L9.04159 8.20343C8.83972 8.25551 8.65548 8.36073 8.50806 8.50815C8.36064 8.65557 8.25542 8.8398 8.20334 9.04168L7.28051 12.6204C7.26335 12.6817 7.22662 12.7357 7.1759 12.7742C7.12519 12.8127 7.06329 12.8335 6.99963 12.8335C6.93598 12.8335 6.87407 12.8127 6.82336 12.7742C6.77265 12.7357 6.73591 12.6817 6.71876 12.6204L5.79651 9.04168Z" stroke="#7F56D9" stroke-width="0.84" stroke-linecap="round" stroke-linejoin="round"/>
</svg>
